<?xml version="1.0" encoding="utf-8"?>
<!-- Generator: Adobe Illustrator 25.2.3, SVG Export Plug-In . SVG Version: 6.00 Build 0)  -->
<svg version="1.1" id="Layer_1" xmlns="http://www.w3.org/2000/svg" xmlns:xlink="http://www.w3.org/1999/xlink" x="0px" y="0px"
	 viewBox="0 0 2551.18 1133.86" style="enable-background:new 0 0 2551.18 1133.86;" xml:space="preserve">
<style type="text/css">
	.st0{fill:none;stroke:#000000;stroke-width:3;stroke-miterlimit:10;}
	.st1{fill:#F1DCDA;stroke:#000000;stroke-width:3;stroke-miterlimit:10;}
	.st2{fill:#D2EDF3;stroke:#000000;stroke-width:3;stroke-miterlimit:10;}
	.st3{fill:#D8E4BC;stroke:#000000;stroke-width:3;stroke-miterlimit:10;}
	.st4{fill:#E4DEEB;stroke:#000000;stroke-width:3;stroke-miterlimit:10;}
	.st5{fill:#ECF0DE;stroke:#000000;stroke-width:3;stroke-miterlimit:10;}
	.st6{fill:#FDE8D8;stroke:#000000;stroke-width:3;stroke-miterlimit:10;}
	.st7{fill:#C5D9F0;stroke:#000000;stroke-width:3;stroke-miterlimit:10;}
	.st8{fill:#DDD9C4;stroke:#000000;stroke-width:3;stroke-miterlimit:10;}
	.st9{fill:#B7DEE8;stroke:#000000;stroke-width:3;stroke-miterlimit:10;}
	.st10{fill:#DBEFF3;stroke:#000000;stroke-width:3;stroke-miterlimit:10;}
	.st11{fill:#FCF9CE;stroke:#000000;stroke-width:3;stroke-miterlimit:10;}
	.st12{fill:#F6EB14;stroke:#000000;stroke-width:3;stroke-miterlimit:10;}
</style>
<rect x="324.91" y="77.52" class="st0" width="2018.22" height="966.45"/>
<g>
	
		<rect x="320.57" y="83.4" transform="matrix(8.799089e-14 -1 1 8.799089e-14 241.5083 524.3115)" class="st0" width="124.67" height="116.01"/>
	<line class="st0" x1="351.8" y1="203.08" x2="351.8" y2="78.4"/>
	<line class="st0" x1="383.58" y1="202.42" x2="383.58" y2="79.07"/>
	<line class="st0" x1="416" y1="203.08" x2="416" y2="78.4"/>
</g>
<line class="st0" x1="324.91" y1="140.74" x2="491.13" y2="140.74"/>
<g>
	
		<rect x="325.55" y="937.96" transform="matrix(-1 -1.790904e-13 1.790904e-13 -1 773.2178 1981.9287)" class="st0" width="122.11" height="106.01"/>
	<line class="st0" x1="447.02" y1="1019.39" x2="324.91" y2="1019.39"/>
	<line class="st0" x1="446.37" y1="990.35" x2="325.55" y2="990.35"/>
	<line class="st0" x1="447.02" y1="960.73" x2="324.91" y2="960.73"/>
</g>
<line class="st0" x1="384.37" y1="1043.97" x2="384.37" y2="934.18"/>
<g>
	
		<rect x="1335.39" y="79.45" transform="matrix(7.910911e-14 -1 1 7.910911e-14 1258.0924 1528.264)" class="st0" width="115.57" height="111.27"/>
	<line class="st0" x1="1363.34" y1="192.26" x2="1363.34" y2="76.69"/>
	<line class="st0" x1="1393.83" y1="191.65" x2="1393.83" y2="77.3"/>
	<line class="st0" x1="1419.24" y1="192.26" x2="1419.24" y2="76.69"/>
</g>
<line class="st0" x1="1337.54" y1="134.47" x2="1448.81" y2="134.47"/>
<rect x="491.13" y="78.4" class="st1" width="161.78" height="101.33"/>
<rect x="324.91" y="216.18" class="st2" width="166.22" height="232"/>
<rect x="324.91" y="446.85" class="st3" width="166.22" height="284"/>
<rect x="491.13" y="499.29" class="st4" width="108.44" height="231.56"/>
<rect x="491.13" y="290.85" class="st5" width="108.44" height="208.44"/>
<rect x="491.13" y="179.74" class="st2" width="108.44" height="111.11"/>
<rect x="678.68" y="360.18" class="st6" width="503.11" height="176.89"/>
<rect x="678.68" y="537.07" class="st7" width="243.56" height="308.44"/>
<rect x="1181.79" y="360.18" class="st1" width="144" height="485.33"/>
<rect x="829.79" y="78.4" class="st8" width="154.67" height="212.44"/>
<rect x="984.46" y="179.74" class="st5" width="116.44" height="111.11"/>
<rect x="1100.91" y="179.74" class="st1" width="80.89" height="111.11"/>
<rect x="984.46" y="77.52" class="st1" width="341.33" height="102.22"/>
<rect x="922.79" y="77.52" class="st0" width="61.68" height="61.68"/>
<rect x="1181.79" y="179.74" class="st8" width="144" height="111.11"/>
<rect x="1505.05" y="78.07" class="st6" width="192" height="212.77"/>
<rect x="1697.05" y="78.07" class="st4" width="117.33" height="212.77"/>
<rect x="1418.6" y="360.18" class="st3" width="106.01" height="88.44"/>
<rect x="1524.61" y="360.18" class="st3" width="133.93" height="88.44"/>
<rect x="1418.6" y="448.63" class="st1" width="239.94" height="102.96"/>
<rect x="1418.6" y="551.37" class="st3" width="106.01" height="139.48"/>
<rect x="1658.54" y="551.37" class="st8" width="82.37" height="195.78"/>
<rect x="1658.54" y="360.18" class="st9" width="82.37" height="191.41"/>
<rect x="1740.91" y="360.18" class="st4" width="258.37" height="191.41"/>
<rect x="1740.91" y="553.55" class="st10" width="258.37" height="193.59"/>
<rect x="1658.54" y="857.3" class="st5" width="127.7" height="186.67"/>
<rect x="1418.6" y="690.85" class="st3" width="106.01" height="56.3"/>
<rect x="1524.61" y="690.85" class="st3" width="133.93" height="56.3"/>
<rect x="1524.61" y="551.37" class="st3" width="133.93" height="139.48"/>
<rect x="1448.17" y="802.64" class="st4" width="210.37" height="241.33"/>
<rect x="1335.13" y="891.97" class="st0" width="113.63" height="152"/>
<rect x="1100.91" y="643" class="st4" width="80.89" height="202.52"/>
<rect x="1184.46" y="914.2" class="st0" width="150.67" height="129.77"/>
<rect x="1000.91" y="914.2" class="st8" width="183.56" height="129.77"/>
<rect x="1181.79" y="360.18" class="st10" width="144" height="64.88"/>
<rect x="652.46" y="914.2" class="st1" width="348.17" height="129.77"/>
<rect x="444.46" y="914.2" class="st7" width="208" height="129.77"/>
<rect x="324.91" y="731.57" class="st0" width="59.56" height="99.56"/>
<rect x="384.46" y="731.57" class="st0" width="59.56" height="99.56"/>
<g>
	<rect x="324.91" y="1043.97" class="st0" width="118.93" height="0"/>
	<line class="st0" x1="325.54" y1="1043.97" x2="444.46" y2="1043.97"/>
	<line class="st0" x1="326.17" y1="1043.97" x2="443.83" y2="1043.97"/>
	<line class="st0" x1="325.54" y1="1043.97" x2="444.46" y2="1043.97"/>
</g>
<polygon class="st8" points="652.91,78.4 652.91,165.96 680.02,165.96 678.68,290.85 829.79,290.85 829.79,78.4 "/>
<polygon class="st10" points="1814.39,78.07 1999.28,77.52 1999.28,229.96 2008.02,229.96 2008.02,289.66 1814.39,290.85 "/>
<polygon class="st5" points="1999.28,77.52 2343.13,77.52 2343.13,203.29 2086.24,203.29 2085.79,244.18 2008.02,244.18 
	2008.02,229.96 1999.28,229.96 "/>
<rect x="2086.24" y="203.29" class="st5" width="100" height="96.89"/>
<polygon class="st1" points="2086.24,300.18 2086.24,399.74 2343.13,399.74 2343.13,203.29 2186.24,203.29 2186.24,300.18 "/>
<rect x="2086.24" y="399.74" class="st5" width="256.89" height="138.22"/>
<rect x="2086.24" y="537.96" class="st11" width="256.89" height="103.11"/>
<polygon class="st6" points="2086.24,641.07 2086.24,747.15 2220.02,747.15 2220.02,801.96 2343.13,801.96 2343.13,641.07 "/>
<rect x="2265.35" y="801.96" class="st6" width="77.78" height="69.78"/>
<polygon class="st5" points="1786.24,802.64 1948.46,804.41 1948.46,1043.97 1658.54,1043.97 1658.54,989.3 1786.24,989.3 "/>
<polygon class="st10" points="1948.46,806.3 2129.35,806.3 2129.35,875.63 2186.46,875.63 2186.68,1043.97 1948.46,1043.97 "/>
<rect x="2186.68" y="916.08" class="st0" width="78.67" height="127.88"/>
<rect x="2264.91" y="916.08" class="st0" width="78.67" height="127.88"/>
<polygon class="st3" points="922.24,537.07 1181.79,537.07 1181.79,641.07 1100.91,641.07 1100.91,845.52 922.24,845.52 "/>
<rect x="351.57" y="914.2" class="st12" width="32.89" height="23.1"/>
<rect x="1443.92" y="107.09" transform="matrix(-1.836970e-16 1 -1 -1.836970e-16 1579.0048 -1341.722)" class="st12" width="32.89" height="23.1"/>
<rect x="436.02" y="112.75" transform="matrix(-1.836970e-16 1 -1 -1.836970e-16 576.7622 -328.1687)" class="st12" width="32.89" height="23.1"/>
</svg>
