<?xml version="1.0" encoding="utf-8"?>
<!-- Generator: Adobe Illustrator 25.2.3, SVG Export Plug-In . SVG Version: 6.00 Build 0)  -->
<svg version="1.1" id="Layer_1" xmlns="http://www.w3.org/2000/svg" xmlns:xlink="http://www.w3.org/1999/xlink" x="0px" y="0px"
	 viewBox="0 0 2551.18 1133.86" style="enable-background:new 0 0 2551.18 1133.86;" xml:space="preserve">
<style type="text/css">
	.st0{fill:none;stroke:#000000;stroke-width:3;stroke-miterlimit:10;}
	.st1{fill:#B7DEE8;stroke:#000000;stroke-width:3;stroke-miterlimit:10;}
	.st2{fill:#ECF0DE;stroke:#000000;stroke-width:3;stroke-miterlimit:10;}
	.st3{fill:#D2EDF3;stroke:#000000;stroke-width:3;stroke-miterlimit:10;}
	.st4{fill:#DBEFF3;stroke:#000000;stroke-width:3;stroke-miterlimit:10;}
	.st5{fill:#F1DCDA;stroke:#000000;stroke-width:3;stroke-miterlimit:10;}
	.st6{fill:#FDE8D8;stroke:#000000;stroke-width:3;stroke-miterlimit:10;}
	.st7{fill:#D9D9D8;stroke:#000000;stroke-width:3;stroke-miterlimit:10;}
	.st8{fill:#E4DEEB;stroke:#000000;stroke-width:3;stroke-miterlimit:10;}
	.st9{fill:#DDD9C4;stroke:#000000;stroke-width:3;stroke-miterlimit:10;}
</style>
<rect x="435.06" y="54.14" transform="matrix(6.045736e-14 -1 1 6.045736e-14 355.3092 575.5394)" class="st0" width="60.72" height="111.96"/>
<line class="st0" x1="435.4" y1="140.16" x2="435.4" y2="79.43"/>
<line class="st0" x1="463.24" y1="139.83" x2="463.24" y2="79.75"/>
<line class="st0" x1="494.52" y1="140.16" x2="494.52" y2="79.43"/>
<rect x="521.4" y="79.75" class="st0" width="43.7" height="43.7"/>
<rect x="463.24" y="139.83" class="st0" width="31.28" height="38.87"/>
<rect x="494.52" y="139.83" class="st0" width="26.88" height="38.87"/>
<polygon class="st1" points="409.45,140.48 409.45,579.59 565.1,579.59 565.1,178.7 463.24,178.7 463.24,139.83 "/>
<rect x="565.1" y="252.48" class="st2" width="98.53" height="162.67"/>
<rect x="859.54" y="256.03" class="st3" width="107.82" height="159.11"/>
<rect x="431.11" y="557.6" transform="matrix(-1.836970e-16 1 -1 -1.836970e-16 1122.6991 148.1553)" class="st1" width="112.32" height="155.65"/>
<rect x="614.05" y="724.32" transform="matrix(-1.836970e-16 1 -1 -1.836970e-16 1583.861 -22.9071)" class="st4" width="378.67" height="112.32"/>
<rect x="778.03" y="672.66" transform="matrix(-1.836970e-16 1 -1 -1.836970e-16 1747.8398 -186.886)" class="st5" width="378.67" height="215.64"/>
<rect x="1334.74" y="678.25" transform="matrix(-1.836970e-16 1 -1 -1.836970e-16 2304.5469 -743.593)" class="st6" width="378.67" height="204.44"/>
<rect x="1545.4" y="672.03" transform="matrix(-1.836970e-16 1 -1 -1.836970e-16 2515.2134 -954.2596)" class="st6" width="378.67" height="216.89"/>
<rect x="1769.26" y="40.78" transform="matrix(-1.836970e-16 1 -1 -1.836970e-16 2184.4072 -1689.5104)" class="st2" width="335.39" height="413.33"/>
<rect x="1446.29" y="131.14" transform="matrix(-1.836970e-16 1 -1 -1.836970e-16 1861.4357 -1208.9263)" class="st4" width="177.78" height="390.22"/>
<rect x="981.85" y="684.48" transform="matrix(-1.836970e-16 1 -1 -1.836970e-16 1951.658 -390.7041)" class="st7" width="378.67" height="192"/>
<rect x="1177.4" y="680.92" transform="matrix(-1.836970e-16 1 -1 -1.836970e-16 2102.769 -586.2596)" class="st8" width="334.22" height="154.67"/>
<rect x="1322.29" y="870.25" transform="matrix(-1.836970e-16 1 -1 -1.836970e-16 2292.1023 -396.9263)" class="st0" width="44.44" height="154.67"/>
<rect x="982.61" y="240.79" transform="matrix(-1.836970e-16 1 -1 -1.836970e-16 1397.7489 -726.5728)" class="st6" width="159.11" height="189.6"/>
<rect x="639" y="194.6" transform="matrix(-1.836970e-16 1 -1 -1.836970e-16 1054.1445 -529.2076)" class="st5" width="305.35" height="135.74"/>
<rect x="1083.12" y="287.08" transform="matrix(-1.836970e-16 1 -1 -1.836970e-16 1498.2656 -869.8741)" class="st0" width="201.9" height="54.22"/>
<rect x="465.33" y="635.38" transform="matrix(-1.836970e-16 1 -1 -1.836970e-16 1200.4769 225.9331)" class="st9" width="43.88" height="155.65"/>
<polygon class="st5" points="565.1,109.79 723.81,109.79 723.81,415.14 663.63,415.14 663.63,252.48 565.1,252.48 565.1,178.7 
	521.4,178.7 521.4,123.45 565.1,123.45 "/>
<polygon class="st4" points="859.54,109.79 1070.74,109.79 1070.74,79.75 1156.96,79.75 1156.96,256.03 859.54,256.03 "/>
<polygon class="st5" points="1340.07,81.51 1340.07,237.37 1730.29,237.37 1730.29,107.59 1391.63,109.37 1391.33,81.22 "/>
<polygon class="st8" points="1914.74,415.14 1914.74,925.37 2012.07,925.37 2012.07,862.25 2143.63,864.92 2143.63,415.14 "/>
<rect x="2012.07" y="862.25" class="st0" width="131.56" height="107.56"/>
<polygon class="st4" points="409.45,735.14 409.45,925.37 463.24,925.37 465.42,843.59 565.1,840.92 565.1,735.14 "/>
<polygon class="st6" points="409.45,925.37 409.45,969.81 565.1,969.81 565.1,840.92 465.42,843.59 463.24,925.37 "/>
<rect x="464.46" y="879.6" class="st0" width="25.77" height="25.77"/>
<line class="st0" x1="1156.96" y1="79.75" x2="1340.07" y2="81.51"/>
<line class="st0" x1="489.27" y1="969.81" x2="791.68" y2="969.81"/>
<line class="st0" x1="1804.83" y1="969.81" x2="2107.23" y2="969.81"/>
<line class="st0" x1="565.1" y1="754.16" x2="565.1" y2="1056.57"/>
<line class="st0" x1="747.22" y1="754.16" x2="747.22" y2="1056.57"/>
</svg>
