<?xml version="1.0" encoding="utf-8"?>
<!-- Generator: Adobe Illustrator 25.2.3, SVG Export Plug-In . SVG Version: 6.00 Build 0)  -->
<svg version="1.1" id="Layer_1" xmlns="http://www.w3.org/2000/svg" xmlns:xlink="http://www.w3.org/1999/xlink" x="0px" y="0px"
	 viewBox="0 0 2551.18 1133.86" style="enable-background:new 0 0 2551.18 1133.86;" xml:space="preserve">
<style type="text/css">
	.st0{fill:#FFFFFF;stroke:#000000;stroke-width:3;stroke-miterlimit:10;}
	.st1{fill:none;stroke:#000000;stroke-width:3;stroke-miterlimit:10;}
	.st2{fill:#E4DEEB;stroke:#000000;stroke-width:3;stroke-miterlimit:10;}
	.st3{fill:#D2EDF3;stroke:#000000;stroke-width:3;stroke-miterlimit:10;}
	.st4{fill:#DDD9C4;stroke:#000000;stroke-width:3;stroke-miterlimit:10;}
	.st5{fill:#FDE8D8;stroke:#000000;stroke-width:3;stroke-miterlimit:10;}
	.st6{fill:#EDEBE1;stroke:#000000;stroke-width:3;stroke-miterlimit:10;}
	.st7{fill:#DBEFF3;stroke:#000000;stroke-width:3;stroke-miterlimit:10;}
	.st8{fill:#A8D48C;stroke:#000000;stroke-width:3;stroke-miterlimit:10;}
	.st9{fill:#C5D9F0;stroke:#000000;stroke-width:3;stroke-miterlimit:10;}
	.st10{fill:#FCF9CE;stroke:#000000;stroke-width:3;stroke-miterlimit:10;}
	.st11{fill:#ECF0DE;stroke:#000000;stroke-width:3;stroke-miterlimit:10;}
	.st12{fill:#DCE5F0;stroke:#000000;stroke-width:3;stroke-miterlimit:10;}
	.st13{fill:#D8E4BC;stroke:#000000;stroke-width:3;stroke-miterlimit:10;}
	.st14{fill:#D9D9D8;stroke:#000000;stroke-width:3;stroke-miterlimit:10;}
	.st15{fill:#F1DCDA;stroke:#000000;stroke-width:3;stroke-miterlimit:10;}
</style>
<rect x="338.88" y="203.14" class="st0" width="75.11" height="48.53"/>
<rect x="245.29" y="105.13" transform="matrix(6.123234e-17 -1 1 6.123234e-17 144.1736 471.1913)" class="st0" width="124.78" height="116.75"/>
<line class="st0" x1="277.1" y1="225.24" x2="277.1" y2="100.46"/>
<line class="st0" x1="249.05" y1="161.39" x2="366.31" y2="161.39"/>
<line class="st0" x1="307.68" y1="224.58" x2="307.68" y2="101.12"/>
<line class="st0" x1="338.88" y1="225.24" x2="338.88" y2="100.46"/>
<rect x="1288.15" y="102.71" transform="matrix(6.123234e-17 -1 1 6.123234e-17 1187.9106 1502.2367)" class="st1" width="113.85" height="108.9"/>
<line class="st1" x1="1316.54" y1="213.49" x2="1316.54" y2="99.63"/>
<line class="st1" x1="1290.38" y1="161.01" x2="1399.76" y2="161.01"/>
<line class="st1" x1="1345.07" y1="212.88" x2="1345.07" y2="100.24"/>
<line class="st1" x1="1374.17" y1="213.49" x2="1374.17" y2="99.63"/>
<rect x="249.31" y="101.12" class="st1" width="2054.46" height="934.07"/>
<rect x="250.54" y="101.12" class="st1" width="2053.22" height="934.07"/>
<polygon class="st2" points="430.58,100.46 430.58,161.39 493.99,161.39 493.99,214.05 597.1,214.05 597.1,308.86 827.02,306.49 
	827.02,100.46 "/>
<rect x="827.02" y="100.46" class="st3" width="133.93" height="205.38"/>
<rect x="960.95" y="100.46" class="st4" width="148.74" height="205.38"/>
<rect x="1109.69" y="100.46" class="st4" width="140.44" height="205.38"/>
<rect x="1442.88" y="100.46" class="st5" width="108.89" height="205.38"/>
<rect x="932.21" y="808.99" class="st6" width="177.48" height="226.2"/>
<rect x="777.1" y="808.99" class="st7" width="155.11" height="226.2"/>
<rect x="599.76" y="540.99" class="st8" width="226.2" height="190.69"/>
<rect x="827.02" y="540.99" class="st9" width="102.96" height="190.69"/>
<rect x="825.96" y="374.35" class="st2" width="104.03" height="166.65"/>
<rect x="929.99" y="374.35" class="st10" width="96.44" height="166.65"/>
<rect x="1026.43" y="374.35" class="st11" width="107.56" height="166.65"/>
<rect x="1133.99" y="374.35" class="st7" width="110.67" height="166.65"/>
<rect x="1133.99" y="540.99" class="st7" width="110.67" height="190.69"/>
<rect x="1244.65" y="374.35" class="st7" width="127.56" height="166.65"/>
<rect x="1244.65" y="540.99" class="st5" width="127.56" height="190.69"/>
<rect x="929.99" y="540.99" class="st11" width="96.44" height="190.69"/>
<rect x="1026.43" y="540.99" class="st12" width="107.56" height="190.69"/>
<rect x="599.76" y="374.35" class="st5" width="226.2" height="166.65"/>
<rect x="1906.88" y="808.99" class="st7" width="121.33" height="226.2"/>
<rect x="1774.43" y="808.99" class="st5" width="132.44" height="226.2"/>
<rect x="1316.54" y="808.99" class="st2" width="457.89" height="226.2"/>
<rect x="1706.75" y="-53.87" transform="matrix(-1.836970e-16 1 -1 -1.836970e-16 1930.8713 -1605.6315)" class="st11" width="123.01" height="432.97"/>
<rect x="1643.58" y="132.31" transform="matrix(-1.836970e-16 1 -1 -1.836970e-16 1949.4082 -1419.453)" class="st7" width="81.71" height="265.33"/>
<rect x="1832.02" y="209.2" transform="matrix(-1.836970e-16 1 -1 -1.836970e-16 2137.8525 -1607.8975)" class="st11" width="81.71" height="111.56"/>
<rect x="2171.89" y="92.24" transform="matrix(-1.836970e-16 1 -1 -1.836970e-16 2396.0085 -2072.2515)" class="st13" width="124.49" height="139.27"/>
<rect x="1960.91" y="191.87" transform="matrix(-1.836970e-16 1 -1 -1.836970e-16 2266.7415 -1736.7863)" class="st13" width="81.71" height="146.22"/>
<rect x="2080.08" y="218.66" transform="matrix(-1.836970e-16 1 -1 -1.836970e-16 2395.7581 -1855.9567)" class="st13" width="91.56" height="102.48"/>
<rect x="2013.11" y="72.74" transform="matrix(-1.836970e-16 1 -1 -1.836970e-16 2237.2375 -1911.9976)" class="st13" width="123.01" height="179.76"/>
<rect x="2133.19" y="353.11" transform="matrix(-1.836970e-16 1 -1 -1.836970e-16 2656.8694 -1721.5122)" class="st12" width="112" height="229.15"/>
<rect x="2135.86" y="563.77" transform="matrix(-1.836970e-16 1 -1 -1.836970e-16 2867.5359 -1510.8456)" class="st14" width="106.67" height="229.15"/>
<rect x="1543.65" y="273.57" transform="matrix(-1.836970e-16 1 -1 -1.836970e-16 2275.3313 -1169.3077)" class="st13" width="357.33" height="558.89"/>
<rect x="2210.67" y="942.09" transform="matrix(-1.836970e-16 1 -1 -1.836970e-16 3245.8562 -1298.9913)" class="st1" width="123.51" height="62.68"/>
<rect x="2146.37" y="940.48" transform="matrix(-1.836970e-16 1 -1 -1.836970e-16 3181.5598 -1234.6951)" class="st1" width="123.51" height="65.91"/>
<rect x="2206.43" y="731.68" transform="matrix(-1 -1.224647e-16 1.224647e-16 -1 4510.1943 1506.0236)" class="st14" width="97.33" height="42.67"/>
<rect x="2138.52" y="459.77" transform="matrix(-1.836970e-16 1 -1 -1.836970e-16 2763.5359 -1614.8456)" class="st10" width="101.33" height="229.15"/>
<polygon class="st7" points="1250.13,100.46 1250.13,305.83 1442.88,305.83 1442.88,223.68 1314.43,224.12 1313.99,213.49 
	1290.62,214.09 1290.38,159.23 1265.99,159.23 1265.99,101.12 "/>
<polygon class="st15" points="2074.62,315.68 2074.62,411.68 2303.76,411.68 2303.76,224.12 2177.1,224.12 2177.1,315.68 "/>
<polygon class="st11" points="2028.21,808.99 2028.21,1035.19 2175.17,1035.19 2175.17,848.79 2097.54,849.65 2098.43,808.99 "/>
<polygon class="st15" points="366.31,1035.19 366.31,939.68 469.1,939.68 469.1,849.01 521.1,849.01 521.1,808.99 777.1,808.99 
	777.1,1035.19 "/>
<g>
	<rect x="249.31" y="937.06" class="st1" width="116.39" height="98.03"/>
	<line class="st1" x1="249.92" y1="960.39" x2="366.31" y2="960.39"/>
	<line class="st1" x1="309.48" y1="936.84" x2="309.48" y2="1035.3"/>
	<line class="st1" x1="250.54" y1="986.07" x2="365.7" y2="986.07"/>
	<line class="st1" x1="249.92" y1="1012.26" x2="366.31" y2="1012.26"/>
</g>
<polygon class="st11" points="249.31,234.79 413.99,234.79 413.99,251.68 521.54,251.68 521.54,512.12 249.31,512.12 "/>
<polygon class="st12" points="249.31,512.12 521.54,512.12 521.54,779.23 467.76,779.23 467.76,808.99 389.54,808.99 389.1,821.9 
	368.21,821.9 368.21,835.23 249.31,835.23 "/>
<rect x="1108.28" y="915.68" class="st0" width="51.41" height="119.51"/>
<rect x="249.31" y="835.23" class="st1" width="59.75" height="59.75"/>
<rect x="1159.69" y="915.68" class="st0" width="51.41" height="119.51"/>
<rect x="1212.41" y="893.01" class="st0" width="104.13" height="142.17"/>
<polygon class="st1" points="309.06,894.99 389.54,897.01 389.1,821.9 368.21,821.9 368.21,835.23 309.06,835.23 "/>
<rect x="389.54" y="808.99" class="st0" width="27.11" height="43.13"/>
</svg>
